<?xml  encoding="utf-8"?>
<svg  xmlns="http://www.w3.org/2000/svg" xmlns:xlink="http://www.w3.org/1999/xlink" x="0px" y="0px"
	 viewBox="0 0 800 600" style="enable-background:new 0 0 800 600;" xml:space="preserve">
<style type="text/css">
	.st0{fill:none;stroke:#000000;stroke-width:0.5;stroke-linecap:round;stroke-linejoin:round;}
	.st4{fill:#465dd5;}
	.st1{font-family:'Roboto-Regular';}
	.st2{font-size:14px;}
</style>
<g id="Czech_Republic">
    <!-- Praha -->
    <g id="hlavni-mesto-praha">
      <path d="M304.923,269.384l-1.9-0.194l-1.544-0.413l-0.322-0.193l-0.221-0.097l-0.289-0.036l-0.733,0.107l-1.07,0.316
		l-1.765,1.311l-1.611,1.522l-0.661,0.381l-4.891,1.561l-7.861,1.398l-4.588,1.882l-1.205-0.207l-0.361-0.153l-0.284-0.211
		l-0.192-0.194l-0.151-0.271l-0.103-0.985l0.07-1.144l0.067-0.518l0.067-1.187l-0.118-0.608l-0.289-0.658l-2.953-3.419l-0.272-0.397
		l-0.238-0.443l-0.236-0.589l-0.577-2.034l-0.493-1.082l-0.293-0.494l-2.698-3.385l-0.339-0.508l-0.12-0.388v-0.466l0.103-0.414
		l0.151-0.433l0.305-0.682l0.137-0.405l0.051-0.397l-0.171-0.339l-0.289-0.322l-0.628-0.555l-2.018-1.229l-0.339-0.397l-0.176-0.317
		l0.022-0.266l0.034-0.229l0.12-0.264l0.252-0.281l2.071-1.213l5.182-1.911l0.661-0.083l0.645,0.083l2.72,1.116l0.543,0.103
		l0.628-0.156l0.611-0.353l0.44-0.506l0.154-0.424l-0.05-0.521l-0.171-0.608l-0.101-0.662l0.084-0.565l0.255-0.46l0.457-0.326
		l14.4-4.202l5.401-0.627l1.188,0.231l0.695,0.291l0.568,0.415l1.746,1.835l1.359,0.979l0.474,0.646l0.375,1.094l0.474,0.715
		l0.815,0.398l2.566,0.683l0.409,0.238l0.406,0.345l0.731,1.054l0.373,0.741l0.39,0.516l0.373,0.345l0.748,0.418l2.297,0.75
		l0.628,0.532l0.474,0.821l0.154,0.855l-0.053,0.542l-0.253,0.618l-0.916,1.216l-3.044,3.008l-0.339,0.489l-0.135,0.345
		l-0.017,0.277l0.118,0.33l0.51,1.03l0.118,0.472l0.067,0.56l-0.152,1.522l0.084,0.436l0.221,0.608l0.238,0.515l0.202,0.55
		l0.034,0.374l-0.034,0.43l-0.135,0.38l-0.645,1.222l-2.443,0.625L304.923,269.384z" fill="#d3d3d3" stroke="#000" stroke-width="1">
        <title>Hlavní město Praha</title>
      </path>
      <text x="350" y="180" font-size="12" fill="#000" text-anchor="middle">Praha</text>
    </g>

    <!-- Středočeský kraj -->
    <g id="stredocesky-kraj">
      <path d="
M403.086,289.699l-0.084,1.403l0.034,1.791l-0.151,0.856l-0.409,0.461l-1.138,0.412l-0.356,0.244l-0.813,0.865
l-0.392,0.578l-0.339,0.593l-0.185,0.403l-0.221,0.684l-0.176,0.71l-0.418,2.717l-0.26,0.71l-0.409,0.632l-0.628,0.574
l-0.933,0.454l-1.474,0.268l-1.799-0.255l-0.594-0.166l-0.414,0.009l-0.661,0.376l-3.903,3.482l-3.807,1.5l-4.485,2.667
l-0.39,0.104l-0.51-0.004l-0.594-0.123l-0.95-0.569l-0.406-0.315l-0.255-0.087l-0.339-0.019l-0.745,0.236l-0.137,0.071
l-0.457,0.417l-0.464,0.564l-0.356,0.595l-0.238,0.716l-0.137,0.737l-0.168,0.677l-0.272,0.679l-0.916,1.311l-2.494,2.878
l-0.527,0.931l-0.322,1.219l0.188,0.734l0.507,0.691l4.937,3.704l0.618,0.704l0.56,0.921l0.558,1.471l0.289,1.847l-0.272,2.044
l-8.578,4.145l-3.124,0.49l-1.813-0.751l-3.179-0.078l-2.58,0.759l-1.498,0.191l-1.205-0.061l-4.309-1.914l-0.904-0.065l-0.51,0.13
l-0.305,0.288l-0.188,0.384l-0.051,0.445l0.07,0.402l0.236,0.985l-0.101,0.464l-0.305,0.362l-2.104,1.12l-0.305,0.332l-0.356,0.636
l-0.171,0.567l-0.305,0.78l-0.474,0.823l-1.279,1.151l-0.883,0.376l-0.712,0.104l-0.51-0.2l-0.491-0.313l-0.51-0.454l-0.56-0.619
l-0.457-0.69l-0.339-0.753l-0.339-1.07l-0.262-0.549l-0.729-0.471l-1.323-0.471l-2.104,0.384l-1.104-0.104l-0.56-0.35l-0.051-1.09
l-0.067-0.453l-0.373-0.638l-0.601-0.514l-3.239-0.994l-0.577-0.332l-0.356-0.367l-0.782-1.072l-0.599-0.638l-0.423-0.095
l-0.527,0.184l-1.342,1.16l-0.339,0.401l-0.457,0.681l-0.678,1.388l-0.103,0.48l-0.067,0.523l-0.272,4.422l-0.695,1.045
l-1.534,1.218l-3.545,0.762l-0.748,0.348l-1.599,1.656l-2.614,1.647l-1.188,0.348l-1.169,0.157l-2.602-0.419l-0.188-0.191
l-0.051-0.428l0.034-0.47l0.101-0.506l-1.339-0.361l-12.159,0.493l-2.054-0.271l-1.82-1.012l-1.46-0.365l-1.359,0.061l-0.899,0.2
l-5.13,2.888l-1.118,0.132l-0.832-0.074l-0.493-0.174l-0.322-0.17l-0.272-0.209l-0.243-0.235l-0.527-0.771l-0.219-0.393
l-0.459-0.545l-0.39-0.274l-0.527-0.2l-0.423-0.07l-0.305-0.122l-0.238-0.252l-0.221-0.441l-0.406-1.103l-0.356-0.374l-0.577-0.309
l-1.306-0.339l-1.753-0.013l-1.308,0.248l-0.524,0.169l-0.459,0.315l-1.974,1.987l-2.172,0.889l-6.385,0.841l-2.903-0.109
l-1.414-0.496l-2.035-0.161l-0.645-0.213l-1.342-1.064l-1.101-0.602l-0.837-0.094l-0.782,0.139l-1.222,0.661l-0.712,0.593
l-0.527,1.15l-0.594,1.943l-0.272,0.322l-0.356,0.28l-5.283,1.654l-0.83,0.428l-0.594,0.452l-1.958,1.02l-1.138,0.13l-0.916-0.109
l-1.984-1.144l-0.618-0.454l-0.611-0.226l-0.729-0.165l-2.292-0.083l-0.611-0.206l-1.272-0.887l-0.515-0.132l-0.628,0.078
l-6.351,3.736l-0.017-1.536l0.137-0.587l0.209-0.47l0.474-1.472l0.322-1.639v-0.984l-0.243-1.176l-0.745-1.141l-1.053-1.292
l-0.373-0.775l-0.272-1.012l-0.151-1.735l0.101-4.178l-0.204-0.943l-0.423-0.837l-0.967-1.139l-0.731-0.52l-0.544-0.271
l-0.49-0.165l-0.548-0.377l-0.442-0.611l-0.255-1.301l0.103-0.602l0.288-0.436l0.645-0.559l0.192-0.446l-0.067-0.416l-0.272-0.44
l-1.414-0.865l-0.017-0.227l0.661-0.559l0.883-0.516l0.175-0.494l-0.142-0.607l-1.664-1.503l-0.44-0.699l0.289-0.799l0.594-0.801
l1.294-1.255l1.238-0.783l1.376-0.576l3.206-0.799l0.839-0.42l0.846-0.789l2.715-3.049l0.356-0.744l-0.017-0.515l-0.272-0.579
l-0.779-0.454l-1.07-0.43l-0.272-0.244l-0.152-0.439l0.034-1.005l0.188-0.858l1.085-3.75l0.067-0.853l-0.118-0.723l-0.255-1.008
l-0.067-0.596v-0.473l1.376-3.463l0.118-0.464l0.101-0.658l0.034-0.763l-0.067-1.466l0.034-0.733l0.238-0.565l0.238-0.25
l0.322-0.084l1.058-0.104l0.594-0.181l0.457-0.215l0.272-0.175l0.118-0.302l0.053-0.452l-0.12-0.826l-1.068-3.634l-0.188-0.861
l-0.034-0.721l0.067-0.738l0.171-0.598l-0.459-0.812l-0.971-1.031l-5.74-2.935l-0.238-0.77l-0.104-0.663l-0.457-0.624l-0.695-0.449
l-3.648-1.116l-0.618-0.344l-0.745-0.641l-2.867-3.166l-0.952-0.634l-1.186-0.55l-2.061-0.58l-1.085-0.08l-0.883,0.075
l-1.477,0.348l-1.527,0.146l-1.958-0.247l-0.967-0.608l-5.315-5.14l-1.902-0.925l-1.804-0.421l-1.443-0.563l-0.628-0.019
l-0.56,0.176l-2.222,1.243l-1.188,0.298l-0.548,0.028l-0.611-0.081l-0.544-0.228l-0.406-0.528l-0.017-0.732l0.459-1.225l0.44-0.897
l0.322-0.837l0.051-0.916l-0.051-0.74l-1.306-3.412l1.135-1.631l1.38-0.714l1.698-0.467l1.085-0.557l2.806-2.822l1.272-0.865
l1.053-1.323l1.051-2.529l1.46-2.325l0.611-0.689l1.277-0.734l6.404-2.663l4.682-3.062l1.024-1.077l0.373-0.319l0.796-0.487
l0.933-0.308l1.205,0.017l0.68,0.177l0.678,0.336l0.457,0.15h0.544l1.924-0.513l10.43-5.446l0.933-0.081l0.883,0.382l0.712,0.53
l0.832,0.31l0.762-0.124l1.222-0.968l0.628-0.651l0.685-0.939l0.661-0.752l6.486-4.079l1.036-0.416l1.477,0.098l0.916-0.088
l0.846-0.346l0.652-1.009l0.221-0.638l0.034-0.574l-0.142-1.09l0.022-0.727l0.12-0.947l0.255-0.744l0.457-0.735l0.849-0.399
l1.323-0.311l4.572-0.151l2.679,0.527l2.568,0.934l2.205,0.275l8.626-1.479l3.569,1.337l0.56-0.134l0.796-0.39l2.364-1.98
l0.916-0.597l0.849-0.249l3.088-0.256l1.924,0.132l0.849-0.181l0.863-0.475l0.866-1.302l0.375-0.861l0.236-0.718l0.188-0.398
l0.527-0.79l0.101-0.417v-0.639l-0.154-0.575l-0.406-1.22l-0.135-0.555l0.017-0.587l0.118-1.1l-0.051-0.673l-0.171-0.657
l-0.507-1.519l-0.154-0.693l0.103-0.683l0.406-0.338l0.883,0.16l1.448,0.663l0.577,0.155l0.577,0.053l0.645-0.276l0.95-0.559
l3.189-2.669l0.89-0.474l0.695-0.515l0.168-0.342l0.171-0.431l0.373-1.333l0.137-1.4v-1.052l0.118-0.786l0.154-0.591l0.322-0.667
l0.406-0.612l0.746-0.525l1.188-0.346l4.877-0.117l2.075,0.338l1.679-0.115l0.765,0.115l0.491,0.25l0.221,0.421l0.204,0.503
l0.084,0.418l0.067,0.493l0.051,0.556l0.137,0.489l0.255,0.401l0.305,0.221l0.95,0.128l1.905-0.164l9.814-2.564l4.434-2.97
l4.009-1.908l0.967-0.738l1.289-1.281l0.832-0.579l1.82-0.988l0.916-0.819l0.782-0.971l1.154-2.305l0.44-0.672l0.697-0.787
l2.256-1.916l0.633-0.788l1.275-2.072l0.406-0.498l0.527-0.25l0.628,0.036l1.068,0.445l0.899,0.027l1.243-0.57l0.798-0.205
l0.765,0.116l1.051,0.883l0.899,0.428l2.619-0.188l0.56,0.161l0.577,0.392l2.085,2.485l0.664,0.632l0.813,0.303l0.736,0.161
l2.833-0.757l0.967,5.056l1.154,2.129l3.891,3.505l0.221,0.658l-0.034,0.641l-0.339,0.609l-0.356,0.546l-0.087,0.089l-0.373,0.894
l-0.067,1.361l0.289,1.026l0.745,1.359l0.356,0.795l0.221,0.742l1,6.941l0.087,1.683l-0.171,1.409l-0.373,0.968l-0.933,1.722
l-0.95,1.294l-0.289,0.83l-0.356,1.38l-0.154,2.526l0.154,1.135l0.236,0.639l0.289,0.213l5.418,2.34l0.681,0.45l0.678,0.657
l0.933,1.518l0.407,1.352l0.305,1.965l0.375,0.911l0.592,0.655l0.63,0.245l0.796,0.075l0.77-0.062l2.02-0.452l1,0.079l2.992,0.717
l4.48-0.583l0.796,0.056l0.736,0.314l0.899,0.824l0.493,0.995l0.322,0.969l0.406,2.928l0.017,2.316l0.255,1.406l0.474,1.821
l1.681,4.86l0.221,0.954l-0.07,0.424l-0.135,0.389l-0.135,0.336l-0.459,0.68l-1.782,1.855l-0.168,0.51l-0.034,0.884l0.269,0.539
l0.305,0.396l1.748,1.218l0.837,0.831l1.053,1.274l1.44,2.149l0.426,1.067l0.067,0.705l-0.322,0.48l-1.799,1.751l-0.255,0.502
l-0.125,0.57v0.898l0.125,0.86l0.409,1.93l0.034,0.59l-0.051,0.599l-0.204,1.753l-0.974-0.043l-2.227,0.564l-2.025,0.985
l-0.531,0.829l1.255,2.016l0.796,0.81l2.564,1.663l3.72,1.214l0.765,0.501l3.992,3.852l0.883,0.634l1.443,0.413l0.762,0.395
l0.798,0.66l1.024,1.222l0.152,0.839l-0.238,0.852l-0.289,0.611l-0.135,0.497l-0.067,0.734l-0.07,3.399l-0.123,0.932l-0.255,0.991
l-0.544,1.611l-0.44,1.753L403.086,289.699z M304.923,269.384l3.978-0.194l2.443-0.625l0.645-1.222l0.135-0.38l0.034-0.43
l-0.034-0.374l-0.202-0.55l-0.238-0.515l-0.221-0.608l-0.084-0.436l0.152-1.522l-0.067-0.56l-0.118-0.472l-0.51-1.03l-0.118-0.33
l0.017-0.277l0.135-0.345l0.339-0.489l3.044-3.008l0.916-1.216l0.253-0.618l0.053-0.542l-0.154-0.855l-0.474-0.821l-0.628-0.532
l-2.297-0.75l-0.748-0.418l-0.373-0.345l-0.39-0.516l-0.373-0.741l-0.731-1.054l-0.406-0.345l-0.409-0.238l-2.566-0.683
l-0.815-0.398l-0.474-0.715l-0.375-1.094l-0.474-0.646l-1.359-0.979l-1.746-1.835l-0.568-0.415l-0.695-0.291l-1.188-0.231
l-5.401,0.627l-14.4,4.202l-0.457,0.326l-0.255,0.46l-0.084,0.565l0.101,0.662l0.171,0.608l0.05,0.521l-0.154,0.424l-0.44,0.506
l-0.611,0.353l-0.628,0.156l-0.543-0.103l-2.72-1.116l-0.645-0.083l-0.661,0.083l-5.182,1.911l-2.071,1.213l-0.252,0.281
l-0.12,0.264l-0.034,0.229l-0.022,0.266l0.176,0.317l0.339,0.397l2.018,1.229l0.628,0.555l0.289,0.322l0.171,0.339l-0.051,0.397
l-0.137,0.405l-0.305,0.682l-0.151,0.433l-0.103,0.414v0.466l0.12,0.388l0.339,0.508l2.698,3.385l0.293,0.494l0.493,1.082
l0.577,2.034l0.236,0.589l0.238,0.443l0.272,0.397l2.953,3.419l0.289,0.658l0.118,0.608l-0.067,1.187l-0.067,0.518l-0.07,1.144
l0.103,0.985l0.151,0.271l0.192,0.194l0.284,0.211l0.361,0.153l1.205,0.207l4.588-1.882l7.861-1.398l4.891-1.561l0.661-0.381
l1.611-1.522l1.765-1.311l1.07-0.316l0.733-0.107l0.289,0.036l0.221,0.097l0.322,0.193l1.544,0.413L304.923,269.384z" fill="#d3d3d3" stroke="#000" stroke-width="1">
        <title>Středočeský kraj</title>
      </path>
      <text x="350" y="220" font-size="12" fill="#000" text-anchor="middle">Středočeský kraj</text>
    </g>

    <!-- Jihočeský kraj -->
    <g id="jihocesky-kraj">
      <path d="M220.391,475.944l-2.138-2.223l-5.283-10.564l-2.545-3.98l-1.538-0.86l-4.078-0.645l-2.07-0.98l-1.866-1.866
		l-1.708-2.598l-1.165-3.03l-0.271-3.151l-1.991,0.224l-1.866-1.033l-1.855-1.49l-1.923-1.18l-1.806-0.384l-0.004-0.047
		l-0.135-1.561l2.381-5.076l2.544-3.972l2.359-2.335l0.515-0.888l0.317-0.989l0.034-1.437l-0.103-0.83l-0.18-0.965l-0.055-1.805
		l0.394-2.424l1.409-3.646l1.154-1.308l1.017-0.485l1.323,0.268l0.476-0.095l0.423-0.311l1.058-1.448l2.886-5.47l0.984-0.964
		l1.135-0.741l0.89-0.324l0.594-0.554l0.084-0.627l-0.476-1.178l-1.532-1.576l-0.44-0.615l-0.154-0.589l0.067-0.648l0.392-0.655
		l0.7-0.917l0.339-0.624l0.137-0.654v-0.926l-0.611-1.603l-0.034-0.547l0.135-0.654l0.527-0.663l0.44-0.407l1.902-1.145l0.524-0.45
		l0.373-0.728l0.443-1.18l0.611-2.111l0.984-2.161l2.109-3.535l0.459-1.034l0.135-1.129l-0.135-1.432l-0.594-2.962l-0.238-2.072
		l0.188-2.594l0.762-3.159l0.103-0.839l-0.154-1.435l-1.39-5.451l-1.551-3.47l6.351-3.736l0.628-0.078l0.515,0.132l1.272,0.887
		l0.611,0.206l2.292,0.083l0.729,0.165l0.611,0.226l0.618,0.454l1.984,1.144l0.916,0.109l1.138-0.13l1.958-1.02l0.594-0.452
		l0.83-0.428l5.283-1.654l0.356-0.28l0.272-0.322l0.594-1.943l0.527-1.15l0.712-0.593l1.222-0.661l0.782-0.139l0.837,0.094
		l1.101,0.602l1.342,1.064l0.645,0.213l2.035,0.161l1.414,0.496l2.903,0.109l6.385-0.841l2.172-0.889l1.974-1.987l0.459-0.315
		l0.524-0.169l1.308-0.248l1.753,0.013l1.306,0.339l0.577,0.309l0.356,0.374l0.406,1.103l0.221,0.441l0.238,0.252l0.305,0.122
		l0.423,0.07l0.527,0.2l0.39,0.274l0.459,0.545l0.219,0.393l0.527,0.771l0.243,0.235l0.272,0.209l0.322,0.17l0.493,0.174
		l0.832,0.074l1.118-0.132l5.13-2.888l0.899-0.2l1.359-0.061l1.46,0.365l1.82,1.012l2.054,0.271l12.159-0.493l1.339,0.361
		l-0.101,0.506l-0.034,0.47l0.051,0.428l0.188,0.191l2.602,0.419l1.169-0.157l1.188-0.348l2.614-1.647l1.599-1.656l0.748-0.348
		l3.545-0.762l1.534-1.218l0.695-1.045l0.272-4.422l0.067-0.523l0.103-0.48l0.678-1.388l0.457-0.681l0.339-0.401l1.342-1.16
		l0.527-0.184l0.423,0.095l0.599,0.638l0.782,1.072l0.356,0.367l0.577,0.332l3.239,0.994l0.601,0.514l0.373,0.638l0.067,0.453
		l0.051,1.09l0.56,0.35l1.104,0.104l2.104-0.384l1.323,0.471l0.729,0.471l0.262,0.549l0.339,1.07l0.339,0.753l0.457,0.69l0.56,0.619
		l0.51,0.454l0.491,0.313l0.51,0.2l0.712-0.104l1.558,1.67l0.452,0.752l0.274,0.795l-0.007,0.795l-0.389,0.75l-0.753,0.578
		l-3.869,1.126l-0.63,0.43l-0.277,0.667l1.63,5.889l0.293,2.743l-0.089,3.095l-2.311,9.135l-0.024,1.185l0.281,1.03l0.479,0.809
		l1.811,1.763l0.308,0.441l0.204,0.587l0.072,0.81l-0.255,3.463l0.115,0.83l0.313,0.845l0.572,0.872l4.107,3.846l2.075,1.266
		l1.003,0.138l0.976-0.319l1.881-1.743l0.955-0.336l0.943,0.092l1.763,1.025l2.448,2.399l3.146,2.1l2.886,3.853l4.396,2.872
		l0.476-0.02l0.467-0.329l1.914-2.92l0.551-0.394l0.608-0.188l0.681,0.04l5.752,3.017l0.457,0.304l1.246,0.346l5.327,0.624
		l0.94,0.372l0.611,0.87l0.44,1.415l0.221,2.724l0.272,1.488l0.356,1.133l0.544,0.719l5.197,4.953l0.406,0.233l0.51,0.105
		l1.832-0.329l0.493-0.022l5.163,0.946l1.561-0.112l4.247-1.703l0.459-0.103l0.373,0.026l0.406,0.276l5.199,5.142l0.695,0.924
		l0.204,0.597l-0.019,0.45l-0.286,0.397l-0.459,0.354l-0.56,0.297l-0.745,0.185l-2.417,0.156l-0.575,0.108l-0.289,0.284
		l-0.255,0.668l-0.12,0.734l-0.118,1.197l-0.238,0.815l-0.544,1.114l-3.561,4.218l-0.464,0.664l-0.204,0.647l-0.236,1.336
		l0.089,0.682l0.147,0.422l0.204,0.073h0.344l0.375,0.156l0.339,0.409l0.474,1.131l0.409,0.744l0.678,0.471l0.762,0.172l1.732,0.137
		l1.279,0.277l0.524,0.335l0.493,0.474l0.543,0.857l0.101,0.59v0.685l-0.527,1.743l-1.669,4.219l-0.406,1.334l-0.457,0.999
		l-0.272,1.575l-0.008,0.041l-2.51-0.978l-5.407-4.7l-2.353-1.352l-4.864-1.645l-5.26-2.688l-2.443-0.698l-5.124-0.06l-0.543-0.379
		l-0.452-0.827l-0.554-0.69l-0.837,0.009l-0.441,0.681l-0.272,2.24l-0.362,0.879l-1.516,1.826l-0.566,0.362l-8.348,2.256
		l-2.172-0.043l0.724-2.377l0.045-2.265l-0.464-2.266l-0.803-2.353l-8.518-0.698l-6.086-2.095l-2.398,0.31l-0.351,0.276l-0.17,0.56
		v0.776l0.102,0.905l-1.493,3.516l-0.045,4.746l0.453,5.096l-0.011,4.603l-2.319,10.418l-0.792,2.096l-0.181,1.159l0.215,1.047
		l0.475,1.314l0.486,1.073l0.238,0.3l-1.256,2.909l-2.217,0.206l-5.656-2.325l-5.712-0.79l-1.651,0.635l-0.645,1.579l-0.441,2.016
		l-1.097,1.947l-0.554,3.173l-5.758,5.074l-2.07,3.367l-0.396,4.474l0.056,5.062l-0.554,4.302l-0.496,0.497l-1.699,1.704
		l-1.798-0.12l-0.86-1.081l-0.645-1.556l-1.176-1.561l-0.713-0.158l-1.674,0.586l-0.848-0.094l-0.351-0.697l-0.011-1.103
		l-0.136-1.056l-0.701-0.62l-1.686,0.137l-3.28,1.583l-1.64,0.368l-1.289-0.316l-4.366-2.293l-2.624-3.098l-1.595,1.104
		l-2.455,6.532l-1.731,1.783l-5.69,2.458l-2.206,1.773l-0.86,0.342l-1.052,0.12l-10.859-3.846l-15.508-1.744l-3.721-1.565
		l-0.916-0.821l-1.889-2.361l-0.475-0.907l-0.509-2.259l0.204-0.479l0.622-0.231l0.735-1.549l0.328-0.24l0.532,0.103l0.498-0.154
		l0.204-1.036l-0.283-1.01l-0.656-0.462l-0.758-0.308l-0.554-0.522l-0.701-1.362l-1.821-2.802l-0.962-1.046l-7.364-4.063
		l-2.398-1.998l-1.991-1.561l-2.081-1.141L220.391,475.944z" fill="#d3d3d3" stroke="#000" stroke-width="1">
        <title>Jihočeský kraj</title>
      </path>
      <text x="300" y="400" font-size="12" fill="#000" text-anchor="middle">Jihočeský kraj</text>
    </g>

    <!-- Plzeňský kraj -->
    <g id="plzensky-kraj">
      <path d="M188.288,442.183l-0.705-0.15l-1.516,0.698l-1.041,1.835l-1.131,2.902l-2.556-1.231l-3.461-2.489l-3.145-2.955
		l-1.572-2.56l-0.068-4.682l-1.222-2.907l-4.649-4.746l-3.326-4.464l-1.335-1.157l-2.195-0.847l-6.617-0.311l-3.099-1.815
		l-1.742-2.809l-1.437-3.294l-10.248-13.961l-1.357-0.771l-0.023-0.017l-3.495-4.177l-0.498-1.56l-0.147-1.621l-0.611-1.37
		l-1.9-0.789l-3.077-3.27l-1.584-1.284l-1.855-0.998l-4.185-1.154l-1.504,0.477l0.486,2.161l-2.047,0.278l-6.448-0.946l-2.172-0.79
		l-1.731-1.797l-3.586-8.051l-2.206-2.286l-5.045-2.382l-2.138-1.783l-1.244-2.435l-0.543-2.732l-0.317-5.527l-0.147-2.839
		l-0.814-0.662l-1.154,0.165l-1.233-0.375l-1.188-1.246l-0.86-1.263l-0.69-1.508l-0.701-2.022l-0.441-1.979l-0.509-3.742
		l-0.769-1.832l-1.154-1.274l-2.613-1.44l-1.12-1.362l0.079-0.41l0.52-1.327l-0.871-0.428l-0.283-0.227l0.927-2.07l-0.079-2.245
		l-0.905-1.791l-1.516-0.795l-3.642-1.748l-1.674-1.145l-1.572-1.425l-2.262-3.262l-1.131-2.17l-0.543-1.785l1.29-2.547l4.525-1.926
		l1.742-1.769l0.351-2.786l0.057-3.558l0.667-2.393l2.195,0.675l0.803-2.622l2.522-4.676l0.882-2.598l0.339-3.301l5.181,0.982
		l1.034-0.183l0.813-0.463l2.968-2.999l0.582-0.263l0.606-0.028l3.227,1.203l1.914,0.205l1.563-0.263l0.52-0.34l3.304-3.885
		l0.726-0.391l8.499,0.172l2.388,2.516l0.411,0.241l0.406,0.088l0.402-0.095l2.725-2.04l0.868-0.239l0.366,0.041l2.934,1.487
		l1.768,0.418l0.695-0.202l0.471-0.598l1.474-7.191l0.433-0.864l0.582-0.514l10.136-5.531l2.357-2.596l1.145-0.713l0.505-0.109
		l7.551,1.481l3.913,4.427l1.412,0.556l1.477-0.037l0.599-0.269l0.414-0.445l0.163-0.632l-1.287-5.053l-0.091-0.992l0.05-0.859
		l0.219-0.68l0.423-0.446l6.351-1.403l0.483-0.461l-0.077-0.629l-0.765-1.783l-0.264-1.046l-0.106-1.063l0.111-1.018l0.389-0.909
		l0.729-0.739l1.126-0.502l1.017,1.138l1.193,1.657l0.695,0.746l1.003,0.506l4.92,1.239l1.515,0.013l2.326-1.666l1.306,3.412
		l0.051,0.74l-0.051,0.916l-0.322,0.837l-0.44,0.897l-0.459,1.225l0.017,0.732l0.406,0.528l0.544,0.228l0.611,0.081l0.548-0.028
		l1.188-0.298l2.222-1.243l0.56-0.176l0.628,0.019l1.443,0.563l1.804,0.421l1.902,0.925l5.315,5.14l0.967,0.608l1.958,0.247
		l1.527-0.146l1.477-0.348l0.883-0.075l1.085,0.08l2.061,0.58l1.186,0.55l0.952,0.634l2.867,3.166l0.745,0.641l0.618,0.344
		l3.648,1.116l0.695,0.449l0.457,0.624l0.104,0.663l0.238,0.77l5.74,2.935l0.971,1.031l0.459,0.812l-0.171,0.598l-0.067,0.738
		l0.034,0.721l0.188,0.861l1.068,3.634l0.12,0.826l-0.053,0.452l-0.118,0.302l-0.272,0.175l-0.457,0.215l-0.594,0.181l-1.058,0.104
		l-0.322,0.084l-0.238,0.25l-0.238,0.565l-0.034,0.733l0.067,1.466l-0.034,0.763l-0.101,0.658l-0.118,0.464l-1.376,3.463v0.473
		l0.067,0.596l0.255,1.008l0.118,0.723l-0.067,0.853l-1.085,3.75l-0.188,0.858l-0.034,1.005l0.152,0.439l0.272,0.244l1.07,0.43
		l0.779,0.454l0.272,0.579l0.017,0.515l-0.356,0.744l-2.715,3.049l-0.846,0.789l-0.839,0.42l-3.206,0.799l-1.376,0.576l-1.238,0.783
		l-1.294,1.255l-0.594,0.801l-0.289,0.799l0.44,0.699l1.664,1.503l0.142,0.607l-0.175,0.494l-0.883,0.516l-0.661,0.559l0.017,0.227
		l1.414,0.865l0.272,0.44l0.067,0.416l-0.192,0.446l-0.645,0.559l-0.288,0.436l-0.103,0.602l0.255,1.301l0.442,0.611l0.548,0.377
		l0.49,0.165l0.544,0.271l0.731,0.52l0.967,1.139l0.423,0.837l0.204,0.943l-0.101,4.178l0.151,1.735l0.272,1.012l0.373,0.775
		l1.053,1.292l0.745,1.141l0.243,1.176v0.984l-0.322,1.639l-0.474,1.472l-0.209,0.47l-0.137,0.587l0.017,1.536l1.551,3.47
		l1.39,5.451l0.154,1.435L216.8,366.2l-0.762,3.159l-0.188,2.594l0.238,2.072l0.594,2.962l0.135,1.432l-0.135,1.129l-0.459,1.034
		l-2.109,3.535l-0.984,2.161l-0.611,2.111l-0.443,1.18l-0.373,0.728l-0.524,0.45l-1.902,1.145l-0.44,0.407l-0.527,0.663
		l-0.135,0.654l0.034,0.547l0.611,1.603v0.926l-0.137,0.654l-0.339,0.624l-0.7,0.917l-0.392,0.655l-0.067,0.648l0.154,0.589
		l0.44,0.615l1.532,1.576l0.476,1.178l-0.084,0.627l-0.594,0.554l-0.89,0.324l-1.135,0.741l-0.984,0.964l-2.886,5.47l-1.058,1.448
		l-0.423,0.311l-0.476,0.095l-1.323-0.268l-1.017,0.485l-1.154,1.308l-1.409,3.646l-0.394,2.424l0.055,1.805l0.18,0.965l0.103,0.83
		l-0.034,1.437l-0.317,0.989l-0.515,0.888l-2.359,2.335l-2.544,3.972l-2.381,5.076l0.135,1.561L188.288,442.183z" fill="#d3d3d3" stroke="#000" stroke-width="1">
        <title>Plzeňský kraj</title>
      </path>
      <text x="200" y="350" font-size="12" fill="#000" text-anchor="middle">Plzeňský kraj</text>
    </g>

    <!-- Karlovarský kraj -->
    <g id="karlovarsky-kraj">
      <path d="M32.758,214.903l5.25,0.389l2.104,1.497l0.645,1.585l-0.034,2.939l0.43,1.336l1.222,1.079l1.595,0.495
		l3.145,0.08l0.781,0.433l0.362,0.619l-0.056,0.787l-0.486,0.964l-0.17,0.027l-0.147,0.053l-0.147,0.097l-0.136,0.124l-0.294,0.327
		l-0.102,0.345l0.113,0.38l0.283,0.398l1.912,1.936l0.475,0.645l0.452,1.114l0.192,0.999l0.113,0.884l1.312,4.708l1.109,1.731
		l1.866,0.238l1.527-1.112v-1.519l-0.633-1.828l-0.328-2.12l0.339-3.04l0.588-1.609l2.16-2.776l0.294-2.715l0.894-1.336l1.222-0.858
		l1.244-1.31l3.394-6.189l1.176-1.169l3.213-1.807l1.301-1.17l0.396-0.23l0.984,0.036l0.441-0.239l0.238-0.629l-0.068-0.674
		l-0.147-0.576l-0.023-0.354l0.294-0.771l0.226-0.869l0.385-0.851l0.814-0.709l3.031-2.608l4.412-1.304l8.19-0.612l5.848,1.065
		l1.425-0.16l1.222-1.18l2.421-3.763l1.403-1.394l1.787-0.648l1.753-0.107l1.957,0.275l0.679-0.266l1.538-1.021l0.984-0.204
		l0.916,0.275l10.135,6.188l3.744,0.213l0.882-0.871l3.672,3.071l1.866,1.066l7.15,0.833l0.661,0.509l0.56,0.724l0.717,1.467
		l0.798,1.065l1.392,1.04l2.732,0.567l3.331,0.17l3.088,0.797l1.686,0.927l0.695,0.81l0.56,1.107l0.543,2.267l0.185,1.48
		l0.034,1.455l-0.202,3.713l0.034,1.142l0.185,2.018l0.392,2.185l0.135,1.767l-0.101,0.902l-0.204,0.844l-0.255,0.801l0.339,1.379
		l0.832,1.732l2.313,3.578l0.729,1.872l0.238,1.395l-0.373,0.768l-0.44,0.715l-1.585,2.07l-0.204,0.375l-0.185,0.689l0.339,0.538
		l0.815,0.838l2.294,1.648l1.275,1.164l-1.126,0.502l-0.729,0.739l-0.389,0.909l-0.111,1.018l0.106,1.063l0.264,1.046l0.765,1.783
		l0.077,0.629l-0.483,0.461l-6.351,1.403l-0.423,0.446l-0.219,0.68l-0.05,0.859l0.091,0.992l1.287,5.053l-0.163,0.632l-0.414,0.445
		l-0.599,0.269l-1.477,0.037l-1.412-0.556l-3.913-4.427l-7.551-1.481l-0.505,0.109l-1.145,0.713l-2.357,2.596l-10.136,5.531
		l-0.582,0.514l-0.433,0.864l-1.474,7.191l-0.471,0.598l-0.695,0.202l-1.768-0.418l-2.934-1.487l-0.366-0.041l-0.868,0.239
		l-2.725,2.04l-0.402,0.095l-0.406-0.088l-0.411-0.241l-2.388-2.516l-8.499-0.172l-0.726,0.391l-3.304,3.885l-0.52,0.34
		l-1.563,0.263l-1.914-0.205l-3.227-1.203l-0.606,0.028l-0.582,0.263l-2.968,2.999l-0.813,0.463l-1.034,0.183l-5.181-0.982
		l-0.679-1.229l-1.561-0.606l-4.479-2.635l0.125-1.845l0.758-2.294l-0.283-2.488l-1.844-1.759l-4.027-0.422l-1.674-1.654h-0.113
		l-16.56-8.89l-0.351-1.083l-0.023-1.55l-0.226-1.745l-0.973-1.683l-1.584-1.375l-1.753-1.014l-1.55-1.42l-0.95-2.584l-0.068-2.558
		l0.769-3.883l-0.317-2.569l-0.837-2.031l-1.233-1.908l-2.681-2.951l-5.407-3.386l-1.131-2.034l1.369-2.07l1.131-0.743l0.735-0.796
		l0.204-2.195l-0.407-2.443l-0.882-1.523L30,214.698L32.758,214.903z" fill="#d3d3d3" stroke="#000" stroke-width="1">
        <title>Karlovarský kraj</title>
      </path>
      <text x="150" y="300" font-size="12" fill="#000" text-anchor="middle">Karlovarský kraj</text>
    </g>

    <!-- Ústecký kraj -->
    <g id="ustecky-kraj">
      <path d="M307.14,121.978l-0.065,0.461l-0.303,1.011l-0.289,0.541l-0.402,0.472l-0.534,0.335l-3.302,0.287l-0.45,0.345
		l-0.339,0.59l-0.212,0.893l-0.204,2.68l-0.358,1.299l-0.553,1.117l-0.705,0.873l-0.82,0.567l-0.899,0.204l-0.935-0.223
		l-5.714-5.932l-0.762-0.352l-0.611,0.181l-0.416,0.845l-1.231,7.143l-1.385,1.297l-0.479,0.667l-0.387,0.772l-0.224,0.865
		l0.058,1.828l-0.149,0.735l-0.301,0.612l-2.47,2.306l-0.459,0.623l-2.003,5.21l-1.539,0.972l-0.505,0.547l-0.38,0.668l-0.168,0.789
		l0.13,0.911l6.156,19.403l7.799,6.457l0.846,3.948l-0.746,0.525l-0.406,0.612l-0.322,0.667l-0.154,0.591l-0.118,0.786v1.052
		l-0.137,1.4l-0.373,1.333l-0.171,0.431l-0.168,0.342l-0.695,0.515l-0.89,0.474l-3.189,2.669l-0.95,0.559l-0.645,0.276l-0.577-0.053
		l-0.577-0.155l-1.448-0.663l-0.883-0.16l-0.406,0.338l-0.103,0.683l0.154,0.693l0.507,1.519l0.171,0.657l0.051,0.673l-0.118,1.1
		l-0.017,0.587l0.135,0.555l0.406,1.22l0.154,0.575v0.639l-0.101,0.417l-0.527,0.79l-0.188,0.398l-0.236,0.718l-0.375,0.861
		l-0.866,1.302l-0.863,0.475l-0.849,0.181l-1.924-0.132l-3.088,0.256l-0.849,0.249l-0.916,0.597l-2.364,1.98l-0.796,0.39
		l-0.56,0.134l-3.569-1.337l-8.626,1.479l-2.205-0.275l-2.568-0.934l-2.679-0.527l-4.572,0.151l-1.323,0.311l-0.849,0.399
		l-0.457,0.735l-0.255,0.744l-0.12,0.947l-0.022,0.727l0.142,1.09l-0.034,0.574l-0.221,0.638l-0.652,1.009l-0.846,0.346
		l-0.916,0.088l-1.477-0.098l-1.036,0.416l-6.486,4.079l-0.661,0.752l-0.685,0.939l-0.628,0.651l-1.222,0.968l-0.762,0.124
		l-0.832-0.31l-0.712-0.53l-0.883-0.382l-0.933,0.081l-10.43,5.446l-1.924,0.513h-0.544l-0.457-0.15l-0.678-0.336l-0.68-0.177
		l-1.205-0.017l-0.933,0.308l-0.796,0.487l-0.373,0.319l-1.024,1.077l-4.682,3.062l-6.404,2.663l-1.277,0.734l-0.611,0.689
		l-1.46,2.325l-1.051,2.529l-1.053,1.323l-1.272,0.865l-2.806,2.822l-1.085,0.557l-1.698,0.467l-1.38,0.714l-1.135,1.631
		l-2.326,1.666l-1.515-0.013l-4.92-1.239l-1.003-0.506l-0.695-0.746l-1.193-1.657l-1.017-1.138l-1.275-1.164l-2.294-1.648
		l-0.815-0.838l-0.339-0.538l0.185-0.689l0.204-0.375l1.585-2.07l0.44-0.715l0.373-0.768l-0.238-1.395l-0.729-1.872l-2.313-3.578
		l-0.832-1.732l-0.339-1.379l0.255-0.801l0.204-0.844l0.101-0.902l-0.135-1.767l-0.392-2.185l-0.185-2.018l-0.034-1.142l0.202-3.713
		l-0.034-1.455l-0.185-1.48l-0.543-2.267l-0.56-1.107l-0.695-0.81l-1.686-0.927l-3.088-0.797l-3.331-0.17l-2.732-0.567l-1.392-1.04
		l-0.798-1.065l-0.717-1.467l-0.56-0.724l-0.661-0.509l-7.15-0.833l-1.866-1.066l-3.672-3.071l2.387-2.359l1.55-1.838l0.713-3.135
		l0.713-7.011l0.905-0.631l0.916-0.222l0.905,0.196l0.848,0.64l0.961,0.285l1.018,0.089l1.029-0.08l0.995-0.276h0.011l0.023-0.018
		l3.088-1.067l5.769,0.338l2.692-2.019l1.572-2.855l3.642-9.765l2.127,0.196l1.776,1.247l1.821,0.81l2.296-1.176l1.165-3.492
		l0.611-1.096l4.106-2.923l0.656-0.713l0.068-0.624l0.305-0.214l1.335,0.49l0.588,0.669l1.538,2.594l0.724,0.909l2.443,1.203
		l2.036-0.508l1.855-1.693l1.9-2.38l1.086-0.615l0.656-0.811l0.102-1.043l-0.633-1.382l1.821-1.383l1.459-1.891l0.43-2.329
		l-1.267-2.651l4.479-2.715l4.966-0.938l9.83,0.054l2.11-0.42l4.163-1.546l2.364-0.241l5.022,0.563l1.968-0.402l3.167-1.984
		l0.667-0.018l0.633-0.223l0.747-1.072l0.057-0.912l-0.26-1.216l-0.136-1.466l0.464-1.681l1.007-1.243l0.928-0.036l1.063,0.322
		l1.38-0.206l1.12-0.841l1.674-2.147l1.176-0.841l2.138-0.465l4.004,0.519l2.104-0.143l17.058-7.852l1.335-1.254l2.002-3.029
		l1.188-1.174l3.936-0.825l8.585,0.681l3.212-2.734l0.656-4.323l-2.918-1.696l-4.038-1.194l-2.794-2.774l0.102-1.823l0.928-0.647
		l0.17-0.35l-2.183-0.889l-3.699-0.485l-1.278-0.844l1.222-1.77l1.538-5.007l2.624-2.68l3.484-0.553l4.072,1.336l0.826,0.755
		l0.577,0.967l0.713,0.949l1.188,0.647l1.21,0.027l3.065-1.362l3.97,0.225l1.244-0.647l0.95-2.406l0.633,1.475l0.238,1.048
		l0.373,1.043l1.029,1.425l1.357,0.953l2.952,0.746l1.346,1.06l1.324,1.608l0.837,1.374l0.339,1.698l-0.204,2.613l-0.848,2.091
		l-1.312,2.495l-0.6,2.117l1.256,0.996l6.052-2.521l1.324,0.027l0.588,1.965l-0.634,2.305l-1.855,4.366L307.14,121.978z" fill="#d3d3d3" stroke="#000" stroke-width="1">
        <title>Ústecký kraj</title>
      </path>
      <text x="250" y="250" font-size="12" fill="#000" text-anchor="middle">Ústecký kraj</text>
    </g>

    <!-- Liberecký kraj -->
    <g id="liberecky-kraj">
      <path d="M307.14,121.978l0.532,1.299l3.801,1.075l1.561,0.869l4.185,3.188l4.061,0.913l2.375,0.09l1.765-0.483
		l1.063-1.226l1.041-2.006l1.731-4.649l2.33,0.081l3.959-1.111l12.499,0.923l0.226-1.497l-0.136-6.024l-0.124-0.493l-0.068-0.664
		l0.102-0.969l0.305-0.592l1.075-1.22l0.339-0.879l-0.124-5.045l-1.663-2.434l-1.776-1.41l-0.464-1.968h0.011l0.498-0.593
		l0.554-0.458l0.622-0.297l0.622-0.135l1.584-1.159l0.509-0.8l0.305-1.434l2.081,1.919l5.543,1.223l0.928,1.716l1.289,1.276
		l1.538,0.764l1.233-0.252l0.362-1.77v-0.018l0.984-2.274l1.414-0.998l1.278,0.647l0.509,2.642l1.029,2.551l6.233,0.099l2.918,1.455
		l1.753,2.847l-0.113,1.679l-0.95,1.822l-0.769,3.194l0.328,2.466l1.018,3.058l1.289,2.868l1.165,1.882l2.183,1.756l1.98,0.878
		l1.663,1.379l1.312,3.25l0.034,1.683l-0.305,1.736l-0.091,1.646l0.701,1.431l1.366,0.434l0.184,0.058l1.21-1.279l1.041-1.843
		l1.018-1.271l4.559-0.385l8.794,3.09l1.55,4.98l3.636,7.386l0.253,1.363l-0.195,0.976l-0.402,0.951l-0.279,1.317l-0.142,1.558
		l0.156,3.36l0.32,1.557l0.493,1.314l1.349,1.736l0.498,0.883l0.332,0.959l0.188,1.012l0.048,1.042l-0.067,1.05l-0.77,3.678
		l0.034,0.682l0.139,0.661l3.751,8.642l0.231,1.004l0.043,1.065l-0.178,1.153l-0.418,0.953l-0.62,0.508l-0.794,0.161l-8.383-1.486
		l-1.243-0.845l-2.292-2.454l-0.62-0.325l-0.63-0.113l-0.647,0.053l-2.821,0.968l-0.611,0.494l-0.344,0.919l-0.373,5.483
		l-0.25,1.219l-0.474,0.918l-0.652,0.548l-0.714,0.217l-0.762-0.085l-0.796-0.359l-1.635-1.409l-3.348-4.314l-2.097-1.694
		l-4.771-1.936l-1.176,0.011l-1.068,0.443l-4.735,5.353l-0.637,0.282l-0.683-0.079l-0.743-0.384l-6.051-5.11l-1.748-0.618
		l-0.623,0.015l-0.469,0.136l-0.327,0.187l-0.253,0.234l-3.891-3.505l-1.154-2.129l-0.967-5.056l-2.833,0.757l-0.736-0.161
		l-0.813-0.303l-0.664-0.632l-2.085-2.485l-0.577-0.392l-0.56-0.161l-2.619,0.188l-0.899-0.428l-1.051-0.883l-0.765-0.116
		l-0.798,0.205l-1.243,0.57l-0.899-0.027l-1.068-0.445l-0.628-0.036l-0.527,0.25l-0.406,0.498l-1.275,2.072l-0.633,0.788
		l-2.256,1.916l-0.697,0.787l-0.44,0.672l-1.154,2.305l-0.782,0.971l-0.916,0.819l-1.82,0.988l-0.832,0.579l-1.289,1.281
		l-0.967,0.738l-4.009,1.908l-4.434,2.97l-9.814,2.564l-1.905,0.164l-0.95-0.128l-0.305-0.221l-0.255-0.401l-0.137-0.489
		l-0.051-0.556l-0.067-0.493l-0.084-0.418l-0.204-0.503l-0.221-0.421l-0.491-0.25l-0.765-0.115l-1.679,0.115l-2.075-0.338
		l-4.877,0.117l-1.188,0.346l-0.846-3.948l-7.799-6.457l-6.156-19.403l-0.13-0.911l0.168-0.789l0.38-0.668l0.505-0.547l1.539-0.972
		l2.003-5.21l0.459-0.623l2.47-2.306l0.301-0.612l0.149-0.735l-0.058-1.828l0.224-0.865l0.387-0.772l0.479-0.667l1.385-1.297
		l1.231-7.143l0.416-0.845l0.611-0.181l0.762,0.352l5.714,5.932l0.935,0.223l0.899-0.204l0.82-0.567l0.705-0.873l0.553-1.117
		l0.358-1.299l0.204-2.68l0.212-0.893l0.339-0.59l0.45-0.345l3.302-0.287l0.534-0.335l0.402-0.472l0.289-0.541l0.303-1.011
		L307.14,121.978z" fill="#d3d3d3" stroke="#000" stroke-width="1">
        <title>Liberecký kraj</title>
      </path>
      <text x="300" y="200" font-size="12" fill="#000" text-anchor="middle">Liberecký kraj</text>
    </g>

    <!-- Královéhradecký kraj -->
    <g id="kralovehradecky-kraj">
      <path d="M407.151,134.228l13.105,4.602l1.244,0.831l1.448,2.225l0.803,0.786l1.154,0.366l9.095-2.207l2.715,0.259
		l0.238,1.18l0.351,1.054l5.531,9.439l0.701,0.25l3.031-0.089l6.482-2.446l1.81,0.259l1.471,1.428l1.425,2.713l0.95,2.337l0.6,2.381
		l-0.249,2.051l-1.572,1.284l-0.215,0.561l-0.091,0.553l0.079,0.544l0.226,0.517l4.649-0.855l6.787-6.589l4.615,0.473l3.461,2.657
		l1.663,0.785l1.844-0.428l1.335-1.685l0.792-2.203l0.803-1.731l1.414-0.303l3.97,0.08l3.575,0.919l3.36,1.909l9.321,9.903
		l0.995,3.286l-3.439,1.416l0.419,1.3v0.57l-0.305,0.481l-0.475,0.997l-0.17,0.872l-0.147,1.326l0.011,1.014l0.306-0.098
		l-0.939,1.316l-2.251,2.232l-1.029,1.449l-1.878,0.418l-3.507-0.978l-1.719,0.56l-0.848,2.222l-1.64,1.413l-1.923,1.146
		l-1.685,1.413l-0.6,0.24l-1.007,0.64l-0.667,0.062l0.532,1.91l0.204,0.524l-2.183-0.497l-0.86,2.726l1.029,3.071l3.552,0.63
		l1.414,4.427l0.52,0.993l1.403,1.135l0.803-0.177l0.781-0.683l1.278-0.417h4.988l1.041,0.328l0.769,1.596l0.079,1.596l-0.091,1.56
		l0.283,1.497l1.946,2.596l4.875,1.789l2.432,1.709l1.572,2.222l2.783,5.079l1.584,2.158l1.391,2.52l3.314,3.465l1.188,3.234
		l1.244,5.828l1.029,2.136l1.923,2.523l-11.587-3.745l-0.57,0.291l-0.445,0.591l-0.329,0.829l-0.224,1.011l-0.166,2.32l-0.233,1.059
		l-0.64,0.819l-11.322,5.402l-0.625,0.538l-0.459,0.748l-0.51,2.139l-0.409,0.938l-0.543,0.773l-0.649,0.614l-1.501,0.79
		l-9.781,0.919l-1.698,0.689l-1.59,1.198l-4.242-3.669l-1.263-0.301l-0.517-0.363l-1.732-2.197l-0.421-0.362l-0.957-0.225
		l-1.241-0.656l-1.299-1.193l-1.087-1.613l-0.813-1.72l-0.661-0.506l-6.291-1.26l-0.863-0.645l-0.495-0.915l-0.229-1.095
		l-0.029-3.466l-0.113-0.916l-0.322-0.646l-0.606-0.45l-3.035-0.912l-4.567,0.081l-1.027,0.514l-6.969,6.866l-0.623,0.304
		l-0.459-0.144l-0.452-0.405l-0.43-0.632l-0.767-1.787l-1.012-4.405l-0.421-0.569l-0.572-0.238l-5.437,1.599l-0.69,0.829
		l-0.505,1.085l-1.445,4.636l-0.531,0.671l-0.702,0.229l-0.844-0.189l-4.451-3.049l-0.57-0.189l-3.35,1l-1.611-0.021l-4.271-2.116
		l-1.664,0.131l-2.116,1.062l-6.666,6.277l-0.842,0.066l-6.034-2.277l0.322-0.48l-0.067-0.705l-0.426-1.067l-1.44-2.149
		l-1.053-1.274l-0.837-0.831l-1.748-1.218l-0.305-0.396l-0.269-0.539l0.034-0.884l0.168-0.51l1.782-1.855l0.459-0.68l0.135-0.336
		l0.135-0.389l0.07-0.424l-0.221-0.954l-1.681-4.86l-0.474-1.821l-0.255-1.406l-0.017-2.316l-0.406-2.928l-0.322-0.969l-0.493-0.995
		l-0.899-0.824l-0.736-0.314l-0.796-0.056l-4.48,0.583l-2.992-0.717l-1-0.079l-2.02,0.452l-0.77,0.062l-0.796-0.075l-0.63-0.245
		l-0.592-0.655l-0.375-0.911l-0.305-1.965l-0.407-1.352l-0.933-1.518l-0.678-0.657l-0.681-0.45l-5.418-2.34l-0.289-0.213
		l-0.236-0.639l-0.154-1.135l0.154-2.526l0.356-1.38l0.289-0.83l0.95-1.294l0.933-1.722l0.373-0.968l0.171-1.409l-0.087-1.683
		l-1-6.941l-0.221-0.742l-0.356-0.795l-0.745-1.359l-0.289-1.026l0.067-1.361l0.373-0.894l0.087-0.089l0.356-0.546l0.339-0.609
		l0.034-0.641l-0.221-0.658l0.253-0.234l0.327-0.187l0.469-0.136l0.623-0.015l1.748,0.618l6.051,5.11l0.743,0.384l0.683,0.079
		l0.637-0.282l4.735-5.353l1.068-0.443l1.176-0.011l4.771,1.936l2.097,1.694l3.348,4.314l1.635,1.409l0.796,0.359l0.762,0.085
		l0.714-0.217l0.652-0.548l0.474-0.918l0.25-1.219l0.373-5.483l0.344-0.919l0.611-0.494l2.821-0.968l0.647-0.053l0.63,0.113
		l0.62,0.325l2.292,2.454l1.243,0.845l8.383,1.486l0.794-0.161l0.62-0.508l0.418-0.953l0.178-1.153l-0.043-1.065l-0.231-1.004
		l-3.751-8.642l-0.139-0.661l-0.034-0.682l0.77-3.678l0.067-1.05l-0.048-1.042l-0.188-1.012l-0.332-0.959l-0.498-0.883l-1.349-1.736
		l-0.493-1.314l-0.32-1.557l-0.156-3.36l0.142-1.558l0.279-1.317l0.402-0.951l0.195-0.976l-0.253-1.363l-3.636-7.386
		L407.151,134.228z" fill="#d3d3d3" stroke="#000" stroke-width="1">
        <title>Královéhradecký kraj</title>
      </path>
      <text x="350" y="170" font-size="12" fill="#000" text-anchor="middle">Královéhradecký kraj</text>
    </g>

    <!-- Pardubický kraj -->
    <g id="pardubicky-kraj">
      <path d="M523.396,246.813l3.767,3.484l4.593,2.389l4.445-0.326l3.371-4.612l2.432-1.764l1.335-1.897l1.188-2.313
		l1.968-2.984l2.455-2.111l2.172-0.318l2.195,0.15l1.33-0.34l-4.146,10.598l-2.749,9.266l-0.154,1.789l0.697,1.841l0.135,0.603
		l0.084,1.15l-0.168,0.67l-0.305,0.607l-0.493,0.472l-3.364,2.413l-2.239,2.415l-0.664,0.449l-0.406,0.157l-1.871,1.083
		l-0.358,0.915l0.07,0.81l0.767,1.311l0.305,0.782l0.204,0.836l0.443,3.797l0.813,3.25l0.103,1.029l-0.103,4.583l0.154,4.081
		l-1.77,3.816l-0.171,1.339l0.226,1.434l0.628,1.236l1.748,2.642l4.535,9.228l0.289,2.849l0.406,0.949l0.56,0.605l1.765,0.673
		l1.087,1.644l0.813,5.744l-3.376,3.506l-0.255,1.205l-0.305,3.389l-0.661,2.548l-1.092,1.143l-1.188,0.262l-5.485-2.784
		l-2.561-0.898l-2.732-0.254l-3.689,0.267l-1-0.119l-1.364-0.663l-0.83-0.215l-5.844,0.022l-0.95,0.397l-0.56,0.739l-0.135,1.418
		l-0.204,1.104l-0.356,0.69l-0.967,0.802l-12.974,1.265l-2.636-0.236l-2.138-0.659l-4.485-2.902l-3.853-1.409l-1.171-0.839
		l-0.77-1.114l-0.695-1.257l-0.984-1.231l-1.426-1.205l-4.112-2.737l-3.223-1.626l-2.212-0.667l-2.816-0.132l-2.359,0.232
		l-1.193-0.271l-0.815-0.586l-0.356-0.747l-0.322-0.866l-0.779-0.792l-1.222-0.673l-2.518-0.537l-1.628-0.578l-1.477-0.748
		l-1.534-1.049l-0.745-0.307l-0.661-0.009l-0.459,0.42l-0.255,0.437l-0.524,1.365l-0.392,0.666l-0.507,0.385l-1.222,0.444
		l-0.527,0.294l-1.686,1.921l-1.068,0.673l-1.02,0.013l-1.205-0.336l-1.491-0.647l-0.952,0.087l-0.784,0.398l-2.77-0.742
		l-1.724-3.503l-1.498-2.026l-1.784-1.427l-2.833-1.384l-0.421-0.421l-0.267-0.584l-0.236-1.709l-0.394-0.774l-0.587-0.655
		l-1.52-0.953l-2.934-0.7l-4.992-3.912l-1.914-0.529l-8.342,0.674l-0.637-0.341l-1.159-1.291l-2.821-4.613l-2.107-2.493l-4.74-3.149
		l0.154-1.36l0.44-1.753l0.544-1.611l0.255-0.991l0.123-0.932l0.07-3.399l0.067-0.734l0.135-0.497l0.289-0.611l0.238-0.852
		l-0.152-0.839l-1.024-1.222l-0.798-0.66l-0.762-0.395l-1.443-0.413l-0.883-0.634l-3.992-3.852l-0.765-0.501l-3.72-1.214
		l-2.564-1.663l-0.796-0.81l-1.255-2.016l0.531-0.829l2.025-0.985l2.227-0.564l0.974,0.043l0.204-1.753l0.051-0.599l-0.034-0.59
		l-0.409-1.93l-0.125-0.86v-0.898l0.125-0.57l0.255-0.502l1.799-1.751l6.034,2.277l0.842-0.066l6.666-6.277l2.116-1.062l1.664-0.131
		l4.271,2.116l1.611,0.021l3.35-1l0.57,0.189l4.451,3.049l0.844,0.189l0.702-0.229l0.531-0.671l1.445-4.636l0.505-1.085l0.69-0.829
		l5.437-1.599l0.572,0.238l0.421,0.569l1.012,4.405l0.767,1.787l0.43,0.632l0.452,0.405l0.459,0.144l0.623-0.304l6.969-6.866
		l1.027-0.514l4.567-0.081l3.035,0.912l0.606,0.45l0.322,0.646l0.113,0.916l0.029,3.466l0.229,1.095l0.495,0.915l0.863,0.645
		l6.291,1.26l0.661,0.506l0.813,1.72l1.087,1.613l1.299,1.193l1.241,0.656l0.957,0.225l0.421,0.362l1.732,2.197l0.517,0.363
		l1.263,0.301l4.242,3.669l1.59-1.198l1.698-0.689l9.781-0.919l1.501-0.79l0.649-0.614l0.543-0.773l0.409-0.938l0.51-2.139
		l0.459-0.748l0.625-0.538l11.322-5.402l0.64-0.819l0.233-1.059l0.166-2.32l0.224-1.011l0.329-0.829l0.445-0.591l0.57-0.291
		L523.396,246.813z" fill="#d3d3d3" stroke="#000" stroke-width="1">
        <title>Pardubický kraj</title>
      </path>
      <text x="370" y="200" font-size="12" fill="#000" text-anchor="middle">Pardubický kraj</text>
    </g>

    <!-- Vysočina -->
    <g id="kraj-vysocina">
      <path d="M502.352,336.823l-0.243,1.87l-0.512,1.953l-1.361,3.365l-0.019,0.882l0.281,0.734l3.011,3.001l0.385,0.817
		l0.238,0.971l0.091,1.046l-0.048,1.039l-0.183,0.948l-0.313,0.779l-0.435,0.528l-3.275,0.589l-0.5,0.376l-0.301,0.561l-0.043,0.785
		l0.635,2.254l0.245,7.676l0.219,1.211l2.061,6.466l0.135,1.16l-0.118,1.012l-0.435,0.82l-9.547,5.846l-1.38,1.396l-1.15,1.868
		l-0.404,1.075l-0.243,1.148l-0.065,1.043l0.084,0.806l0.19,0.628l0.772,1.415l0.18,0.512l0.07,0.628l-0.125,0.573l-0.337,0.361
		l-2.309,0.925l-0.529,0.507l-0.394,0.779l-0.507,2.051l-0.159,2.11l0.111,0.95l0.269,0.808l0.452,0.617l1.364,0.695l0.57,0.475
		l0.404,0.607l0.216,0.717l0.005,0.806l-0.231,0.872l-0.488,0.916l-1.532,1.852l-0.459,0.862l-0.209,0.816l-0.01,0.781l0.147,0.752
		l0.88,2.15l0.197,0.731l-0.005,0.777l-0.178,0.806l-0.76,1.64l-2.388,2.934l-7.7,2.484l-0.447,0.406l-2.263,3.382l-0.911,0.745
		l-1.135,0.4l-7.549-1.244l-0.488,0.129l-1.948,1.467l-0.678,0.275l-3.28,0.138l-1.311-0.369l-0.572-0.457l-0.527-0.706
		l-0.481-1.005l-0.565-0.763l-0.724-0.068l-0.81,0.446l-2.826,3.517l-0.455-0.138l-1.032-0.018l-0.577,0.216l-0.534,0.468
		l-0.426,0.79l-0.556,2.343l-0.539,0.719l-0.71,0.367l-3.792-0.367l-3.078,1.408l-7.917,7.205l-0.678,0.093l-0.637-0.214
		l-3.285-2.862l-0.765-0.279l-0.743,0.044l-0.693,0.278l-1.147,0.909l-0.758,0.923l-0.346,0.723l-0.885,1.309l-0.572,0.471
		l-0.62,0.134l-0.64-0.363l-2.066-3.276l-0.801-0.702l-0.798-0.416l-0.746-0.126l-0.647,0.169l-0.5,0.462l-0.308,0.76l-0.101-0.59
		l-0.543-0.857l-0.493-0.474l-0.524-0.335l-1.279-0.277l-1.732-0.137l-0.762-0.172l-0.678-0.471l-0.409-0.744l-0.474-1.131
		l-0.339-0.409l-0.375-0.156h-0.344l-0.204-0.073l-0.147-0.422l-0.089-0.682l0.236-1.336l0.204-0.647l0.464-0.664l3.561-4.218
		l0.544-1.114l0.238-0.815l0.118-1.197l0.12-0.734l0.255-0.668l0.289-0.284l0.575-0.108l2.417-0.156l0.745-0.185l0.56-0.297
		l0.459-0.354l0.286-0.397l0.019-0.45l-0.204-0.597l-0.695-0.924l-5.199-5.142l-0.406-0.276l-0.373-0.026l-0.459,0.103l-4.247,1.703
		l-1.561,0.112l-5.163-0.946l-0.493,0.022l-1.832,0.329l-0.51-0.105l-0.406-0.233l-5.197-4.953l-0.544-0.719l-0.356-1.133
		l-0.272-1.488l-0.221-2.724l-0.44-1.415l-0.611-0.87l-0.94-0.372l-5.327-0.624l-1.246-0.346l-0.457-0.304l-5.752-3.017l-0.681-0.04
		l-0.608,0.188l-0.551,0.394l-1.914,2.92l-0.467,0.329l-0.476,0.02l-4.396-2.872l-2.886-3.853l-3.146-2.1l-2.448-2.399l-1.763-1.025
		l-0.943-0.092l-0.955,0.336l-1.881,1.743l-0.976,0.319l-1.003-0.138l-2.075-1.266l-4.107-3.846l-0.572-0.872l-0.313-0.845
		l-0.115-0.83l0.255-3.463l-0.072-0.81l-0.204-0.587l-0.308-0.441l-1.811-1.763l-0.479-0.809l-0.281-1.03l0.024-1.185l2.311-9.135
		l0.089-3.095l-0.293-2.743l-1.63-5.889l0.277-0.667l0.63-0.43l3.869-1.126l0.753-0.578l0.389-0.75l0.007-0.795l-0.274-0.795
		l-0.452-0.752l-1.558-1.67l0.883-0.376l1.279-1.151l0.474-0.823l0.305-0.78l0.171-0.567l0.356-0.636l0.305-0.332l2.104-1.12
		l0.305-0.362l0.101-0.464l-0.236-0.985l-0.07-0.402l0.051-0.445l0.188-0.384l0.305-0.288l0.51-0.13l0.904,0.065l4.309,1.914
		l1.205,0.061l1.498-0.191l2.58-0.759l3.179,0.078l1.813,0.751l3.124-0.49l8.578-4.145l0.272-2.044l-0.289-1.847l-0.558-1.471
		l-0.56-0.921l-0.618-0.704l-4.937-3.704l-0.507-0.691l-0.188-0.734l0.322-1.219l0.527-0.931l2.494-2.878l0.916-1.311l0.272-0.679
		l0.168-0.677l0.137-0.737l0.238-0.716l0.356-0.595l0.464-0.564l0.457-0.417l0.137-0.071l0.745-0.236l0.339,0.019l0.255,0.087
		l0.406,0.315l0.95,0.569l0.594,0.123l0.51,0.004l0.39-0.104l4.485-2.667l3.807-1.5l3.903-3.482l0.661-0.376l0.414-0.009
		l0.594,0.166l1.799,0.255l1.474-0.268l0.933-0.454l0.628-0.574l0.409-0.632l0.26-0.71l0.418-2.717l0.176-0.71l0.221-0.684
		l0.185-0.403l0.339-0.593l0.392-0.578l0.813-0.865l0.356-0.244l1.138-0.412l0.409-0.461l0.151-0.856l-0.034-1.791l0.084-1.403
		l4.74,3.149l2.107,2.493l2.821,4.613l1.159,1.291l0.637,0.341l8.342-0.674l1.914,0.529l4.992,3.912l2.934,0.7l1.52,0.953
		l0.587,0.655l0.394,0.774l0.236,1.709l0.267,0.584l0.421,0.421l2.833,1.384l1.784,1.427l1.498,2.026l1.724,3.503l2.77,0.742
		l0.784-0.398l0.952-0.087l1.491,0.647l1.205,0.336l1.02-0.013l1.068-0.673l1.686-1.921l0.527-0.294l1.222-0.444l0.507-0.385
		l0.392-0.666l0.524-1.365l0.255-0.437l0.459-0.42l0.661,0.009l0.745,0.307l1.534,1.049l1.477,0.748l1.628,0.578l2.518,0.537
		l1.222,0.673l0.779,0.792l0.322,0.866l0.356,0.747l0.815,0.586l1.193,0.271l2.359-0.232l2.816,0.132l2.212,0.667l3.223,1.626
		l4.112,2.737l1.426,1.205l0.984,1.231l0.695,1.257l0.77,1.114l1.171,0.839l3.853,1.409l4.485,2.902L502.352,336.823z" fill="#d3d3d3" stroke="#000" stroke-width="1">
        <title>Vysočina</title>
      </path>
      <text x="320" y="350" font-size="12" fill="#000" text-anchor="middle">Vysočina</text>
    </g>

    <!-- Jihomoravský kraj -->
    <g id="jihomoravsky-kraj">
      <path d="M562.884,502.844l-3.778-4.406l-1.516-10.969l-2.59-3.651l-1.799-0.137l-4.208,1.5l-2.104,0.257l-2.013-0.754
		l-3.959-2.632l-1.674-0.574l-4.163,0.172l-1.742-0.309l-1.437-1.012l-0.792-1.964l-0.407-2.385l-0.86-2l-2.093-0.85l-2.025-0.24
		l-6.538-1.906l-1.866-1.202l-1.007-0.344l-1.007,0.137l-1.979,0.842l-1.131,0.051l-3.156-0.464l-1.9,1.271l-5.554,9.542
		l-1.199,1.123l-1.719,0.506l-0.611-0.197l-1.448-1.183l-2.274,0.343l-0.124,0.112l-15.305-2.273l-10.113,0.609l-5.803-2.522
		l-11.006-8.034l-0.158-0.824v-1.151l-0.577-0.713l-1.855,0.481l-0.113-1.753l-0.814-0.747l-1.233-0.052l-1.38,0.327l1.12-1.487
		l-0.916,0.06l-0.815-0.37l-1.199-0.877l-2.093-0.155l-0.746-0.318l-0.543-0.851l-0.441-2.046l-0.634-0.482l-3.348,0.009
		l-0.95,0.232l-3.891,2.063l-1.844,0.584h-2.523l-2.455-0.584l-8.495-4.807l-6.517-2.54l0.008-0.041l0.272-1.575l0.457-0.999
		l0.406-1.334l1.669-4.219l0.527-1.743v-0.685l0.308-0.76l0.5-0.462l0.647-0.169l0.746,0.126l0.798,0.416l0.801,0.702l2.066,3.276
		l0.64,0.363l0.62-0.134l0.572-0.471l0.885-1.309l0.346-0.723l0.758-0.923l1.147-0.909l0.693-0.278l0.743-0.044l0.765,0.279
		l3.285,2.862l0.637,0.214l0.678-0.093l7.917-7.205l3.078-1.408l3.792,0.367l0.71-0.367l0.539-0.719l0.556-2.343l0.426-0.79
		l0.534-0.468l0.577-0.216l1.032,0.018l0.455,0.138l2.826-3.517l0.81-0.446l0.724,0.068l0.565,0.763l0.481,1.005l0.527,0.706
		l0.572,0.457l1.311,0.369l3.28-0.138l0.678-0.275l1.948-1.467l0.488-0.129l7.549,1.244l1.135-0.4l0.911-0.745l2.263-3.382
		l0.447-0.406l7.7-2.484l2.388-2.934l0.76-1.64l0.178-0.806l0.005-0.777l-0.197-0.731l-0.88-2.15l-0.147-0.752l0.01-0.781
		l0.209-0.816l0.459-0.862l1.532-1.852l0.488-0.916l0.231-0.872l-0.005-0.806l-0.216-0.717l-0.404-0.607l-0.57-0.475l-1.364-0.695
		l-0.452-0.617l-0.269-0.808l-0.111-0.95l0.159-2.11l0.507-2.051l0.394-0.779l0.529-0.507l2.309-0.925l0.337-0.361l0.125-0.573
		l-0.07-0.628l-0.18-0.512l-0.772-1.415l-0.19-0.628l-0.084-0.806l0.065-1.043l0.243-1.148l0.404-1.075l1.15-1.868l1.38-1.396
		l9.547-5.846l0.435-0.82l0.118-1.012l-0.135-1.16l-2.061-6.466l-0.219-1.211l-0.245-7.676l-0.635-2.254l0.043-0.785l0.301-0.561
		l0.5-0.376l3.275-0.589l0.435-0.528l0.313-0.779l0.183-0.948l0.048-1.039l-0.091-1.046l-0.238-0.971l-0.385-0.817l-3.011-3.001
		l-0.281-0.734l0.019-0.882l1.361-3.365l0.512-1.953l0.243-1.87l2.636,0.236l12.974-1.265l0.967-0.802l0.356-0.69l0.204-1.104
		l0.135-1.418l0.56-0.739l0.95-0.397l5.844-0.022l0.83,0.215l1.364,0.663l1,0.119l3.689-0.267l2.732,0.254l2.561,0.898l5.485,2.784
		l1.188-0.262l-0.44,2.052l-0.515,1.273l-0.592,0.649l-0.666,0.182l-3.477-0.835l-0.777,0.249l-0.305,0.671l0.091,0.983l0.414,1.183
		l1.486,2.521l4.67,4.655l0.26,0.541l0.005,0.459l-0.291,0.359l-1.231,0.608l-0.238,0.693l0.058,0.948l0.284,1.133l2.717,6.958
		l0.14,0.954l-0.01,0.91l-0.168,0.866l-0.337,0.821l-0.517,0.777l-0.71,0.732l-0.481,0.751l0.087,0.817l0.534,0.861l5.952,4.63
		l0.935-0.044l0.972-0.432l0.967-0.728l1.765-1.959l1.275-2.003l0.325-0.946l0.084-1.035l-0.111-1.08l-0.26-1.08l-0.774-1.983
		l-1.996-3.345l-0.164-0.585l-0.072-0.718l0.197-2.014l0.406-1.011l0.705-0.589l0.928-0.233l1.077,0.056l4.271,1.777l0.777,0.696
		l1.339,2.128l0.976,2.546l0.736,3.925l0.37,0.858l0.548,0.902l5.084,4.96l0.365,0.613l0.265,0.724l0.144,0.85l-0.166,3.283
		l0.334,0.934l0.623,0.757l1.823,1.071l4.093,1.277l2.227,2.151l2.054,3.062l1.303,3.035l0.19,1.22l-0.043,0.958l-0.12,0.789
		l-0.086,0.298l-0.106,0.369l-1.799,3.246l-0.257,1.085l0.099,1.405l0.967,3.285l1.486,3.107l1.4,1.958l2.871,1.707l0.462,0.478
		l0.382,0.666l0.286,0.916l0.067,0.975l-0.221,0.813l-0.452,0.669l-1.366,0.978l-2.965,1.103l-0.532,0.514l-2.835,4.064
		l-1.669,1.506l-0.2,0.786l0.241,0.786l0.582,0.742l0.827,0.654l2.003,0.867l1.902,0.026l5.334-1.836l0.822,0.055l0.62,0.422
		l0.303,0.833l0.072,1.131l-0.289,5.186l0.216,0.884l0.44,0.642l0.599,0.532l4.502,2.112l6.772,1.408l0.522,0.356l0.416,0.649
		l0.563,1.752l0.346,2.404l3.877,1.649l1.958,1.582l1.183,1.815l0.707,0.419l0.808,0.09l0.856-0.163l3.477-1.89l3.227,0.436
		l2.516,1.011l0.414,0.414l0.717,1.201l0.544,1.552l0.341,1.728l0.332,0.737l0.702,0.507l5.93,1.765l1.039,0.737l0.851,1.053
		l0.717,1.324l1.048,2.947l0.812,3.757l-12.143,4.792l-4.004-0.627l-3.348-3.548l-1.595-0.773l-2.602,0.765l-2.007,1.32
		l-2.133,1.403l-1.9,0.361l-12.488-6.35l-5.26-1.376l-4.898,1.049l-5.882,4.297l-0.995,1.547l-0.645,3.135l-1.572,2.001l-3.767,3.27
		l-2.692,4.599l-5.531,15.994l-1.256,2.307l-1.731,2.118L562.884,502.844z" fill="#d3d3d3" stroke="#000" stroke-width="1">
        <title>Jihomoravský kraj</title>
      </path>
      <text x="400" y="400" font-size="12" fill="#000" text-anchor="middle">Jihomoravský kraj</text>
    </g>

    <!-- Zlínský kraj -->
    <g id="zlinsky-kraj">
      <path d="M717.92,381.802l-4.048,3.18l-14.728,5.758l-3.224,3.06l-2.636,4.297l-2.047,5.109l-1.391,5.495l-0.396,4.488
		l0.019,1.007l0.14,7.471l-0.724,3.67l-2.274,3.858l-3.224,3.011l-3.631,1.673l-5.871-0.457l-2.647,0.414l-2.296,1.483l-1.448,2.914
		l-0.679,2.473l-0.848,5.16l-0.894,2.282l-2.013,1.971l-2.093,0.121l-2.308-0.396l-2.692,0.465l-1.765,1.472l-3.778,6.521
		l-1.934,1.608l-8.886,3.509l-0.812-3.757l-1.048-2.947l-0.717-1.324l-0.851-1.053l-1.039-0.737l-5.93-1.765l-0.702-0.507
		l-0.332-0.737l-0.341-1.728l-0.544-1.552l-0.717-1.201l-0.414-0.414l-2.516-1.011l-3.227-0.436l-3.477,1.89l-0.856,0.163
		l-0.808-0.09l-0.707-0.419l-1.183-1.815l-1.958-1.582l-3.877-1.649l-0.346-2.404l-0.563-1.752l-0.416-0.649l-0.522-0.356
		l-6.772-1.408l-4.502-2.112l-0.599-0.532l-0.44-0.642l-0.216-0.884l0.289-5.186l-0.072-1.131l-0.303-0.833l-0.62-0.422
		l-0.822-0.055l-5.334,1.836l-1.902-0.026l-2.003-0.867l-0.827-0.654l-0.582-0.742l-0.241-0.786l0.2-0.786l1.669-1.506l2.835-4.064
		l0.532-0.514l2.965-1.103l1.366-0.978l0.452-0.669l0.221-0.813l-0.067-0.975l-0.286-0.916l-0.382-0.666l-0.462-0.478l-2.871-1.707
		l-1.4-1.958l-1.486-3.107l-0.967-3.285l-0.099-1.405l0.257-1.085l1.799-3.246l0.106-0.369l0.11,0.27l0.486,0.87l0.351,0.407
		l0.423,0.286l0.486,0.087l0.548-0.19l0.459-0.534l0.277-0.822l0.481-3.085l0.298-0.866l0.493-0.601l0.762-0.225l7.13-0.175
		l0.443,0.087l0.356-0.026l0.491-0.243l0.358-0.398l0.524-0.824l0.594-0.756l3.74-3.614l0.373-0.472l0.979-2.023l-0.945-1.185
		l-0.883-2.871l0.171-2.876l0.452-2.701l2.054,0.268l0.683,0.079l1.686,0.634l2.698,2.317l2.313,1.263l0.967,0.192l4.699,2.124
		l1.125,0.222l0.647-0.227l0.678-0.598l0.543-0.931l0.507-1.119l0.527-0.938l0.457-0.575l0.56-0.464l1.426-0.813l1.888-0.783
		l0.849-0.212l7.794,0.157l0.781-0.118l0.666-0.274l0.476-0.473l0.356-0.514l0.221-0.695v-0.749l-0.272-1.078l-0.714-1.699
		l-0.156-0.679l0.202-0.492l0.409-0.348l1.328-0.527l1.238-0.161l1.664,0.07l9.615,1.951l2.946-1.315l-0.308-1.816l-0.038-1.646
		l0.111-0.829l0.236-0.761l0.344-0.577l0.399-0.37l1.356-0.755l0.44-0.429l0.402-0.666l0.702-2.031l0.452-0.759l0.522-0.491
		l0.565-0.239l0.582-0.004l0.577,0.22l0.551,0.428l1.027,1.193l0.63,0.326l1.352,0.13l1.592-0.396l1.64-4.424l4.824,0.08
		l0.438,0.259l0.382,0.459l0.305,0.713l0.454,2.085l0.43,0.839l0.606,0.615l0.767,0.402l0.921,0.194l17.067-1.692l1.027,0.422
		l3.297,2.347l0.741,0.274l8.313-0.133l1.881,0.72l0.548,0.609l2.28,4.895l0.736,0.832l1.881,1.195l0.678,0.784l0.476,0.949
		l0.327,1.074l0.871,4.81l0.394,1.014l0.529,0.709l0.606,0.46l0.625,0.26l1.208,0.029l-0.202,5.943L717.92,381.802z" fill="#d3d3d3" stroke="#000" stroke-width="1">
        <title>Zlínský kraj</title>
      </path>
      <text x="450" y="450" font-size="12" fill="#000" text-anchor="middle">Zlínský kraj</text>
    </g>

    <!-- Olomoucký kraj -->
    <g id="olomoucky-kraj">
      <path d="M562.771,196.666l1.618,0.974l2.534-0.302l11.244,3.159l1.199,0.736l2.545,2.147l1.403,0.745l1.504,0.018
		l3.337-0.692l1.278,0.39l-0.237,0.479l0.373,1.862l0.679,2.216l0.656,1.489l1.075,1.17l3.857,2.445l2.602,0.753l5.135-0.15
		l2.262,0.965l-2.013,0.815l0.305,0.646l0.385,0.576l0.453,0.496l0.498,0.434l-0.136,2.231l0.215,2.168l0.758,1.761l1.459,1.106
		l1.188-3.132l2.421-0.186l1.726,10.108l-0.108,0.797l-0.308,0.887l-0.469,0.887l-0.601,0.796l-0.695,0.616l-0.76,0.345
		l-0.789-0.015l-1.518-0.96l-0.666-0.086l-0.606,0.242l-0.56,0.498l-2.518,3.708l-8.869,4.958l-1.448,1.686l-0.536,1.037
		l-0.354,1.187l-0.233,2.599l-0.267,0.924l-1.111,1.81l-0.25,0.609l-0.075,0.772l1.243,5.031l0.038,0.813L591.499,262l-0.358,0.736
		l-6.515,9.16l-0.423,0.862l-0.284,0.922l-0.12,0.953l0.053,0.951l0.236,0.921l0.443,0.863l3.064,3.004l0.255,0.482l0.048,0.514
		l-0.195,0.573l-3.143,4.121l-0.325,0.842l-0.209,0.959l-0.515,6.179l0.096,0.751l0.267,0.647l0.488,0.537l1.424,0.647l4.733,0.626
		l0.476,0.321l0.255,0.455l0.303,1.722l0.236,0.544l0.447,0.455l9.364,4.771l0.77,0.024l3.078-1.689l0.77-0.123l0.77,0.294
		l8.417,9.112l1.611,0.811l5.548,0.305l2.544-1.979l0.589-0.272l0.635,0.041l4.002,2.703l2.799,0.22l3.968-1.317l3.158,1.514
		l2.539,2.187l0.488,0.768l0.178,0.738l-0.62,5.581l0.101,1.109l0.325,0.914l0.606,0.641l0.753,0.232l0.717-0.152l2.001-1.293
		l0.63-0.212l0.62,0.143l0.616,0.648l3.347,7.04l0.726,0.765l3.448,1.612l2.924,2.543l1.176,1.5l0.406,0.901l0.488,1.869
		l0.204,2.135l3.119,0.801l1.397,1.097l1.64,1.897l-1.64,4.424l-1.592,0.396l-1.352-0.13l-0.63-0.326l-1.027-1.193l-0.551-0.428
		l-0.577-0.22l-0.582,0.004l-0.565,0.239l-0.522,0.491l-0.452,0.759l-0.702,2.031l-0.402,0.666l-0.44,0.429l-1.356,0.755
		l-0.399,0.37l-0.344,0.577l-0.236,0.761l-0.111,0.829l0.038,1.646l0.308,1.816l-2.946,1.315l-9.615-1.951l-1.664-0.07l-1.238,0.161
		l-1.328,0.527l-0.409,0.348l-0.202,0.492l0.156,0.679l0.714,1.699l0.272,1.078v0.749l-0.221,0.695l-0.356,0.514l-0.476,0.473
		l-0.666,0.274l-0.781,0.118l-7.794-0.157l-0.849,0.212l-1.888,0.783l-1.426,0.813l-0.56,0.464l-0.457,0.575l-0.527,0.938
		l-0.507,1.119l-0.543,0.931l-0.678,0.598l-0.647,0.227l-1.125-0.222l-4.699-2.124l-0.967-0.192l-2.313-1.263l-2.698-2.317
		l-1.686-0.634l-0.683-0.079l-2.054-0.268l-0.452,2.701l-0.171,2.876l0.883,2.871l0.945,1.185l-0.979,2.023l-0.373,0.472
		l-3.74,3.614l-0.594,0.756l-0.524,0.824l-0.358,0.398l-0.491,0.243l-0.356,0.026l-0.443-0.087l-7.13,0.175l-0.762,0.225
		l-0.493,0.601l-0.298,0.866l-0.481,3.085L588,392.708l-0.459,0.534l-0.548,0.19l-0.486-0.087l-0.423-0.286l-0.351-0.407
		l-0.486-0.87l-0.11-0.27l0.086-0.298l0.12-0.789l0.043-0.958l-0.19-1.22l-1.303-3.035l-2.054-3.062l-2.227-2.151l-4.093-1.277
		l-1.823-1.071l-0.623-0.757l-0.334-0.934l0.166-3.283l-0.144-0.85l-0.265-0.724l-0.365-0.613l-5.084-4.96l-0.548-0.902l-0.37-0.858
		l-0.736-3.925l-0.976-2.546l-1.339-2.128l-0.777-0.696l-4.271-1.777l-1.077-0.056l-0.928,0.233l-0.705,0.589l-0.406,1.011
		l-0.197,2.014l0.072,0.718l0.164,0.585l1.996,3.345l0.774,1.983l0.26,1.08l0.111,1.08l-0.084,1.035l-0.325,0.946l-1.275,2.003
		l-1.765,1.959l-0.967,0.728l-0.972,0.432l-0.935,0.044l-5.952-4.63l-0.534-0.861l-0.087-0.817l0.481-0.751l0.71-0.732l0.517-0.777
		l0.337-0.821l0.168-0.866l0.01-0.91l-0.14-0.954l-2.717-6.958l-0.284-1.133l-0.058-0.948l0.238-0.693l1.231-0.608l0.291-0.359
		l-0.005-0.459l-0.26-0.541l-4.67-4.655l-1.486-2.521l-0.414-1.183l-0.091-0.983l0.305-0.671l0.777-0.249l3.477,0.835l0.666-0.182
		l0.592-0.649l0.515-1.273l0.44-2.052l1.092-1.143l0.661-2.548l0.305-3.389l0.255-1.205l3.376-3.506l-0.813-5.744l-1.087-1.644
		l-1.765-0.673l-0.56-0.605l-0.406-0.949l-0.289-2.849l-4.535-9.228l-1.748-2.642l-0.628-1.236l-0.226-1.434l0.171-1.339l1.77-3.816
		l-0.154-4.081l0.103-4.583l-0.103-1.029l-0.813-3.25l-0.443-3.797l-0.204-0.836l-0.305-0.782l-0.767-1.311l-0.07-0.81l0.358-0.915
		l1.871-1.083l0.406-0.157l0.664-0.449l2.239-2.415l3.364-2.413l0.493-0.472l0.305-0.607l0.168-0.67l-0.084-1.15l-0.135-0.603
		l-0.697-1.841l0.154-1.789l2.749-9.266l4.146-10.598l1.226-0.314l1.029-0.919l1.821-2.536l1.312-0.91l0.961-0.035l2.025,0.725
		l0.984-0.071l0.271-0.628l-0.023-2.069l0.305-0.469l1.606,0.027l0.656,0.451l0.509,1.034l1.165,1.75l1.324,0.504l0.701-1.458
		l-0.215-2.254l-1.425-1.892l-0.158-4.158l-1.154-3.071l-1.991-2.195l-2.669-1.567l-2.047-2.117l-1.075-3.322l-0.814-3.652
		l-1.244-3.139l-3.507-5.19l-0.011-2.396l2.975-1.811l2.5,0.32L562.771,196.666z" fill="#d3d3d3" stroke="#000" stroke-width="1">
        <title>Olomoucký kraj</title>
      </path>
      <text x="450" y="350" font-size="12" fill="#000" text-anchor="middle">Olomoucký kraj</text>
    </g>

    <!-- Moravskoslezský kraj -->
    <g id="moravskoslezsky-kraj">
      <path d="M611.366,221.984l2.387,1.938l1.018,3.184l0.554,0.371l0.588,0.133l0.577-0.124l0.566-0.38l3.212-3.91
		l5.215-0.478l9.785,1.734l2.534-0.664l1.878-1.54l3.247-4.505l0.611-1.399l0.283-1.169l0.713-0.461l1.855,0.691l0.611,0.576
		l2.013,2.727l0.271,0.389l0.057,0.46l-0.079,0.513l-0.249,0.54l-1.188,3.203l-0.215,1.566l0.249,1.725l1.154,1.15l1.708,3.165
		l-1.029,2.589l-2.217,1.926l-4.66,2.8l-2.918,1.148l-5.282,0.203l-1.199,0.609l-0.803,1.721l0.226,1.245l5.317,6.749l1.708,0.776
		l1.108-0.203l0.928-0.538l1.165-0.273l1.437,0.388l2.975,1.481l1.538,0.326l0.045,0.167l0.023,0.159l-0.023,0.132l-0.045,0.123
		l-1.018,0.873l-0.351,0.934l0.339,0.978l1.029,1.031l1.21,1.454l0.747,1.885l0.611,2.105l0.86,2.034l1.233,1.708l7.092,7.074
		l3.982,0.844l3.982-1.214l3.224-2.885l1.991-0.519l4.389-0.132l3.563-1.065l0.554-0.748l-0.192-1.699l-0.769-1.18l-0.939-0.026
		l-0.871,0.273l-0.577-0.246l-0.486-3.857l1.82,0.456l1.551,0.389l6.391,4.191l-0.713,3.142l1.425,1.654l6.991,1.328l1.663,0.923
		l3.45,2.981l1.289,0.58l2.568,0.536l1.301,0.967l0.464,0.932l0.758,2.636l0.611,1.151l2.172,1.783l1.584-0.316l3.065-2.679
		l-0.124-0.29l-0.147-0.193l-0.192-0.097h-0.238l4.412-0.545l4.231,1.511l8.133,4.505l2.545-0.009l4.31-2.766l1.617,0.984
		l0.679,3.082l-0.271,2.607l0.475,2.08l2.907,1.57l-3.009,3.499l0.045,4.549l1.9,5.151l2.579,5.323l1.097,4.926l0.69,1.268
		l1.459,1.023l3.371,0.297l1.561,0.472l1.425,1.172l2.149,2.544l1.38,0.83l1.595-0.131l1.708-0.743l1.708-0.297l1.64,1.224
		l0.453,1.319l0.735,5.817l0.509,1.624l1.29,2.95l0.486,1.527l1.572,7.195l0.317,3.486l-0.464,2.814l-4.479,0.122l-2.047,0.784
		l-4.491,4.145l-3.065,0.174l-3.167-0.975l-3.586-1.811l-0.758-0.157l-0.758,0.157l-3.122,1.654l-4.841-0.705l-2.251,1.428
		l-0.566,1.384l-0.271,3.133l-0.554,1.479l-0.905,0.922l-3.597,1.939l-4.66,5.72l-2.455,1.616l-3.19-0.721l-0.069,2.039
		l-1.208-0.029l-0.625-0.26l-0.606-0.46l-0.529-0.709l-0.394-1.014l-0.871-4.81l-0.327-1.074l-0.476-0.949l-0.678-0.784
		l-1.881-1.195l-0.736-0.832l-2.28-4.895l-0.548-0.609l-1.881-0.72l-8.313,0.133l-0.741-0.274l-3.297-2.347l-1.027-0.422
		l-17.067,1.692l-0.921-0.194l-0.767-0.402l-0.606-0.615l-0.43-0.839l-0.454-2.085l-0.305-0.713l-0.382-0.459l-0.438-0.259
		l-4.824-0.08l-1.64-1.897l-1.397-1.097l-3.119-0.801l-0.204-2.135l-0.488-1.869l-0.406-0.901l-1.176-1.5l-2.924-2.543l-3.448-1.612
		l-0.726-0.765l-3.347-7.04l-0.616-0.648l-0.62-0.143l-0.63,0.212l-2.001,1.293l-0.717,0.152l-0.753-0.232l-0.606-0.641
		l-0.325-0.914l-0.101-1.109l0.62-5.581l-0.178-0.738l-0.488-0.768l-2.539-2.187l-3.158-1.514l-3.968,1.317l-2.799-0.22
		l-4.002-2.703l-0.635-0.041l-0.589,0.272l-2.544,1.979l-5.548-0.305l-1.611-0.811l-8.417-9.112l-0.77-0.294l-0.77,0.123
		l-3.078,1.689l-0.77-0.024l-9.364-4.771l-0.447-0.455l-0.236-0.544l-0.303-1.722l-0.255-0.455l-0.476-0.321l-4.733-0.626
		l-1.424-0.647l-0.488-0.537l-0.267-0.647l-0.096-0.751l0.515-6.179l0.209-0.959l0.325-0.842l3.143-4.121l0.195-0.573l-0.048-0.514
		l-0.255-0.482l-3.064-3.004l-0.443-0.863l-0.236-0.921l-0.053-0.951l0.12-0.953l0.284-0.922l0.423-0.862l6.515-9.16l0.358-0.736
		l0.135-0.766l-0.038-0.813l-1.243-5.031l0.075-0.772l0.25-0.609l1.111-1.81l0.267-0.924l0.233-2.599l0.354-1.187l0.536-1.037
		l1.448-1.686l8.869-4.958l2.518-3.708l0.56-0.498l0.606-0.242l0.666,0.086l1.518,0.96l0.789,0.015l0.76-0.345l0.695-0.616
		l0.601-0.796l0.469-0.887l0.308-0.887l0.108-0.797L611.366,221.984z" fill="#d3d3d3" stroke="#000" stroke-width="1">
        <title>Moravskoslezský kraj</title>
      </path>
      <text x="500" y="300" font-size="12" fill="#000" text-anchor="middle">Moravskoslezský kraj</text>
    </g>

</g>

</svg>



